<svg version="1.1" xmlns="http://www.w3.org/2000/svg" xmlns:xlink="http://www.w3.org/1999/xlink" x="0px" y="0px" viewBox="50 150 500 500">
  <style type="text/css">
	.st0{display:none;}
	.st1{display:inline;fill:#FFFFFF;}
	.st2{display:inline;}
	.st3{stroke:#FFFFFF;stroke-width:2.9802;stroke-miterlimit:10;}
	.st4{fill:#FFFFFF;}
	.st5{stroke:#FFFFFF;stroke-width:3.4646;stroke-miterlimit:10;}
</style>
  <g id="КОЛЬЦО" class="st0">
    <path class="st1" d="M288.51,664.54c-97.49,0.5-212.35,32.6-212.31,64.72c0.03,20.59,47.29,40.9,106.79,53.05
		c-15.76-7.48-24.88-14.55-24.16-17.47c1.68-6.87,56.88,11.51,152.37,9.01c72.93-1.91,112.14-14.5,113.52-9.01
		c0.73,2.92-9.38,10.45-26.64,18.3c60.92-11.92,109.18-32.41,109.27-53.21C507.47,697.38,389.71,664.02,288.51,664.54z
		 M290.37,753.99c-51.41-0.35-112.5-17.9-112.52-35.83c-0.02-17.88,60.68-35.74,112.2-36.02c53.48-0.29,115.71,18.28,115.64,36.38
		C405.62,736.63,343.24,754.34,290.37,753.99z"></path>
  </g>
  <g id="РОМБ" class="st0">
    <g class="st2">
      <path class="st3" d="M100.92,14.22C73.19,67.23,45.46,120.24,17.73,173.26c27.83,52.24,55.65,104.48,83.48,156.72
			c27.83-52.24,55.65-104.48,83.48-156.72C156.77,120.24,128.84,67.23,100.92,14.22z"></path>
      <path class="st4" d="M100.61,17.3c0.16,0,0.33,0,0.49,0c15.67,52.4,31.34,104.8,47,157.21l-47.47,156.72l25.52-158.27
			C117.64,121.08,109.13,69.19,100.61,17.3z"></path>
    </g>
  </g>
  <g id="ЛОГО">
    <g>
      <g>
        <path class="st5" d="M297.29,191.67c-32.45,61.21-64.91,122.43-97.36,183.64c32.57,60.32,65.14,120.65,97.7,180.97
				c32.57-60.32,65.14-120.65,97.7-180.97C362.66,314.1,329.98,252.89,297.29,191.67z"></path>
        <path class="st4" d="M296.94,195.24c0.19,0,0.38,0,0.57,0c18.34,60.51,36.67,121.02,55.01,181.53l-55.55,180.97l29.87-182.75
				C316.87,315.07,306.9,255.15,296.94,195.24z"></path>
      </g>
      <path class="st4" d="M370.37,325.01c4.89,9.16,9.78,18.33,14.67,27.49c21.15,8.56,26.59,15.71,26.51,21.16
			c-0.25,18.1-61.37,35.82-115.31,35.46c-52.62-0.35-112.38-18.01-112.52-35.83c-0.05-6.46,7.71-13.41,26.48-20.86
			c4.83-9.15,9.65-18.3,14.48-27.46c-84.83,12.55-142.78,36.6-142.61,59.42c0.23,29.61,98.26,51.22,106.79,53.05
			c-15.76-7.48-24.88-14.55-24.16-17.47c1.68-6.87,56.88,11.51,152.37,9.01c72.93-1.91,112.14-14.5,113.52-9.01
			c0.73,2.92-9.38,10.45-26.64,18.3c6.19-1.26,108.91-22.86,109.27-53.21C513.47,362.17,455.46,337.56,370.37,325.01z"></path>
      <path d="M401.28,290.09"></path>
    </g>
  </g>
</svg>